<svg xmlns="http://www.w3.org/2000/svg" fill="none" viewBox="0 0 24 24" id="Bed--Streamline-Outlined-Material" height="24" width="24">
  <desc>
    Bed Streamline Icon: https://streamlinehq.com
  </desc>
  <path fill="#000000" d="M2 19V12.625c0 -0.41665 0.083335 -0.80835 0.25 -1.175 0.166665 -0.36665 0.416665 -0.66665 0.75 -0.9v-2.9c0 -0.75 0.254165 -1.37915 0.7625 -1.8875C4.270835 5.25415 4.9 5 5.65 5h4.5c0.36665 0 0.70835 0.08335 1.025 0.25 0.31665 0.16665 0.59165 0.39165 0.825 0.675 0.23335 -0.28335 0.50415 -0.50835 0.8125 -0.675 0.30835 -0.16665 0.64585 -0.25 1.0125 -0.25h4.5c0.75 0 1.38335 0.25415 1.9 0.7625C20.74165 6.27085 21 6.9 21 7.65v2.9c0.33335 0.23335 0.58335 0.53335 0.75 0.9 0.16665 0.36665 0.25 0.75835 0.25 1.175V19h-1.5v-2H3.5v2H2Zm10.75 -8.875H19.5V7.65c0 -0.33335 -0.1125 -0.60835 -0.3375 -0.825 -0.225 -0.21665 -0.50415 -0.325 -0.8375 -0.325H13.75c-0.28335 0 -0.52085 0.11665 -0.7125 0.35 -0.19165 0.23335 -0.2875 0.5 -0.2875 0.8v2.475Zm-8.25 0h6.75V7.65c0 -0.3 -0.09585 -0.56665 -0.2875 -0.8 -0.19165 -0.23335 -0.42915 -0.35 -0.7125 -0.35h-4.6c-0.31665 0 -0.5875 0.1125 -0.8125 0.3375 -0.225 0.225 -0.3375 0.49585 -0.3375 0.8125v2.475ZM3.5 15.5h17v-2.875c0 -0.28335 -0.09585 -0.52085 -0.2875 -0.7125s-0.42915 -0.2875 -0.7125 -0.2875H4.5c-0.283335 0 -0.520835 0.09585 -0.7125 0.2875 -0.191665 0.19165 -0.2875 0.42915 -0.2875 0.7125V15.5Z" stroke-width="0.5"></path>
</svg>