<?xml version="1.0" encoding="iso-8859-1"?>
<!-- Uploaded to: SVG Repo, www.svgrepo.com, Generator: SVG Repo Mixer Tools -->
<!DOCTYPE svg PUBLIC "-//W3C//DTD SVG 1.1//EN" "http://www.w3.org/Graphics/SVG/1.1/DTD/svg11.dtd">
<svg fill="#000000" height="800px" width="800px" version="1.1" id="Capa_1" xmlns="http://www.w3.org/2000/svg" xmlns:xlink="http://www.w3.org/1999/xlink" 
	 viewBox="0 0 60 60" xml:space="preserve">
<g>
	<path d="M57,20.232h-3c1.654,0,3-1.346,3-3s-1.346-3-3-3h-1v-1h-7v7h-7.106C41.458,19.047,43,17.419,43,15.565
		c0-0.329-0.06-0.673-0.183-1.052l-0.292-0.898l-0.914,0.241c-0.215,0.057-0.447,0.098-0.667,0.15
		c-0.278-2.124-2.079-3.774-4.277-3.774c-0.753,0-1.467,0.209-2.106,0.569c-0.917-1.15-2.312-1.902-3.894-1.902
		c-1.018,0-1.983,0.305-2.803,0.866C26.85,8.817,25.494,8.232,24,8.232c-2.298,0-4.323,1.399-5.2,3.447
		c-0.414-0.107-0.841-0.163-1.269-0.163c-1.557,0-2.993,0.733-3.842,1.963C13.232,14.141,13,14.842,13,15.565
		c0,1.854,1.542,3.482,4.106,4.667H3c-1.654,0-3,1.346-3,3s1.346,3,3,3h23v14h1v2h-2v1c0,4.411-3.589,8-8,8h-4c-0.552,0-1,0.447-1,1
		s0.448,1,1,1h4h26h4c0.552,0,1-0.447,1-1s-0.448-1-1-1h-3.98h-0.01H43c-4.411,0-8-3.589-8-8v-1h-2v-2h1v-14h23c1.654,0,3-1.346,3-3
		S58.654,20.232,57,20.232z M54,16.232c0.551,0,1,0.448,1,1s-0.449,1-1,1h-1v-2H54z M48,15.232h3v5h-3V15.232z M35.481,12.556
		c0.355-0.212,0.762-0.324,1.185-0.324c1.232,0,2.242,0.959,2.326,2.169c-0.386,0.065-0.774,0.128-1.171,0.18
		c-0.141,0.019-0.279,0.043-0.422,0.06c-0.597,0.071-1.207,0.122-1.82,0.163c0.005-0.024,0.003-0.048,0.007-0.072
		c0.047-0.275,0.079-0.553,0.079-0.833c0-0.3-0.037-0.595-0.09-0.887c-0.015-0.083-0.032-0.165-0.052-0.247
		C35.509,12.696,35.501,12.625,35.481,12.556z M30.667,10.899c1.216,0,2.259,0.73,2.73,1.771c0.076,0.167,0.13,0.339,0.174,0.513
		c0.007,0.03,0.021,0.057,0.027,0.087c0.045,0.206,0.069,0.416,0.069,0.629c0,0.236-0.036,0.466-0.093,0.693
		c-0.01,0.042-0.021,0.083-0.032,0.124c-0.017,0.058-0.05,0.112-0.071,0.169c-0.079,0.001-0.157,0.007-0.236,0.007
		c-0.318,0.003-0.637-0.005-0.956-0.011c-0.329-0.006-0.658-0.01-0.984-0.025c-0.31-0.014-0.617-0.039-0.926-0.06
		c-0.258-0.018-0.516-0.035-0.77-0.058c0.044-0.28,0.067-0.559,0.067-0.839c0-0.211-0.014-0.419-0.036-0.624
		c-0.007-0.064-0.02-0.126-0.029-0.19c-0.021-0.142-0.043-0.283-0.074-0.421c-0.016-0.071-0.036-0.14-0.054-0.21
		c-0.035-0.133-0.073-0.263-0.118-0.392c-0.022-0.065-0.046-0.129-0.071-0.193c-0.054-0.139-0.113-0.276-0.177-0.409
		c-0.015-0.032-0.026-0.065-0.042-0.096C29.54,11.061,30.089,10.899,30.667,10.899z M24,10.232c1.235,0,2.323,0.618,2.988,1.556
		c0.054,0.076,0.098,0.157,0.146,0.236c0.066,0.109,0.129,0.22,0.183,0.337c0.037,0.08,0.07,0.161,0.102,0.244
		c0.051,0.134,0.093,0.271,0.128,0.411c0.018,0.072,0.039,0.143,0.052,0.216c0.04,0.217,0.067,0.439,0.067,0.667
		c0,0.2-0.025,0.401-0.062,0.604c-0.03-0.004-0.061-0.007-0.091-0.012c-0.612-0.093-1.211-0.201-1.791-0.324
		c-0.208-0.044-0.402-0.098-0.605-0.146c-0.389-0.092-0.778-0.184-1.148-0.288c-0.219-0.062-0.425-0.131-0.637-0.198
		c-0.332-0.104-0.661-0.209-0.974-0.324c-0.208-0.076-0.406-0.157-0.606-0.237c-0.291-0.118-0.573-0.239-0.843-0.365
		c-0.098-0.046-0.19-0.094-0.285-0.141C21.189,11.139,22.509,10.232,24,10.232z M15,15.565c0-0.313,0.109-0.623,0.335-0.949
		c0.483-0.698,1.283-1.1,2.196-1.1c0.505,0,1.004,0.133,1.452,0.373c0.036,0.017,0.071,0.03,0.057,0.023
		c0.379,0.212,0.786,0.41,1.206,0.602c0.109,0.05,0.22,0.098,0.332,0.146c0.367,0.159,0.747,0.311,1.142,0.454
		c0.074,0.027,0.144,0.056,0.219,0.083c0.451,0.159,0.922,0.306,1.405,0.444c0.155,0.044,0.314,0.085,0.472,0.127
		c0.344,0.092,0.696,0.178,1.054,0.259c0.192,0.044,0.381,0.088,0.576,0.129c0.473,0.097,0.955,0.187,1.449,0.267
		c0.009,0.001,0.017,0.003,0.025,0.005l-0.008,0.021l1.284,0.159c0.006,0.001,0.012,0.002,0.018,0.003l0.767,0.095l0.002-0.005
		c0.404,0.041,0.82,0.064,1.232,0.093c0.167,0.012,0.332,0.028,0.5,0.038c0.554,0.031,1.116,0.046,1.681,0.054l-0.027,0.047
		l1.776-0.049c0.007,0,0.014,0,0.021,0l0.561-0.017l0.006-0.01c0.197-0.008,0.394-0.018,0.59-0.029
		c0.499-0.029,0.993-0.067,1.482-0.114c0.106-0.01,0.213-0.017,0.318-0.028c0.594-0.062,1.179-0.14,1.757-0.229
		c0.152-0.023,0.299-0.051,0.45-0.076c0.261-0.044,0.526-0.084,0.783-0.133l0.651-0.126l0.002-0.011
		c0.044-0.009,0.09-0.016,0.133-0.025c-0.779,2.054-6.041,4.148-12.9,4.148C20.56,20.232,15,17.768,15,15.565z"/>
	<path d="M49.463,12.31c0.125,0.052,0.255,0.076,0.382,0.076c0.393,0,0.765-0.232,0.924-0.617c0.205-0.495-0.017-1.061-0.496-1.286
		c1.283-0.55,1.476-1.368,1.476-1.811c0-0.447-0.198-1.279-1.521-1.828c-0.512-0.212-1.096,0.031-1.307,0.541
		c-0.205,0.495,0.017,1.061,0.497,1.287c-1.285,0.549-1.478,1.367-1.478,1.81C47.941,10.929,48.139,11.761,49.463,12.31z"/>
</g>
</svg>